<svg width="60" height="60" viewBox="0 0 60 60" fill="none" xmlns="http://www.w3.org/2000/svg">
<path d="M53.6501 53.7749H6.35006C5.68702 53.7749 5.05113 53.5115 4.58229 53.0427C4.11345 52.5738 3.85006 51.9379 3.85006 51.2749C3.85006 50.6119 4.11345 49.976 4.58229 49.5071C5.05113 49.0383 5.68702 48.7749 6.35006 48.7749H53.6501C54.3131 48.7749 54.949 49.0383 55.4178 49.5071C55.8867 49.976 56.1501 50.6119 56.1501 51.2749C56.1501 51.9379 55.8867 52.5738 55.4178 53.0427C54.949 53.5115 54.3131 53.7749 53.6501 53.7749Z" fill="#24A9E2"/>
<path d="M48.9501 53.7751C48.287 53.7751 47.6511 53.5117 47.1823 53.0428C46.7135 52.574 46.4501 51.9381 46.4501 51.2751V46.675H13.5501V51.2751C13.5501 51.9381 13.2867 52.574 12.8178 53.0428C12.349 53.5117 11.7131 53.7751 11.0501 53.7751C10.387 53.7751 9.75114 53.5117 9.2823 53.0428C8.81346 52.574 8.55006 51.9381 8.55006 51.2751V44.175C8.55006 43.512 8.81346 42.8761 9.2823 42.4073C9.75114 41.9384 10.387 41.675 11.0501 41.675H48.9501C49.6131 41.675 50.249 41.9384 50.7178 42.4073C51.1867 42.8761 51.4501 43.512 51.4501 44.175V51.2751C51.4501 51.9381 51.1867 52.574 50.7178 53.0428C50.249 53.5117 49.6131 53.7751 48.9501 53.7751Z" fill="#24A9E2"/>
<path d="M18.175 39.5999C17.512 39.5999 16.8761 39.3365 16.4073 38.8677C15.9384 38.3988 15.675 37.7629 15.675 37.0999V22.8999C15.675 22.2369 15.9384 21.601 16.4073 21.1321C16.8761 20.6633 17.512 20.3999 18.175 20.3999C18.8381 20.3999 19.474 20.6633 19.9428 21.1321C20.4116 21.601 20.675 22.2369 20.675 22.8999V37.0999C20.675 37.7629 20.4116 38.3988 19.9428 38.8677C19.474 39.3365 18.8381 39.5999 18.175 39.5999Z" fill="#24A9E2"/>
<path d="M30 39.6C29.337 39.6 28.7011 39.3367 28.2322 38.8678C27.7634 38.399 27.5 37.7631 27.5 37.1V18.175C27.5 17.512 27.7634 16.8761 28.2322 16.4073C28.7011 15.9384 29.337 15.675 30 15.675C30.663 15.675 31.2989 15.9384 31.7678 16.4073C32.2366 16.8761 32.5 17.512 32.5 18.175V37.1C32.5 37.7631 32.2366 38.399 31.7678 38.8678C31.2989 39.3367 30.663 39.6 30 39.6Z" fill="#24A9E2"/>
<path d="M41.825 39.5999C41.1619 39.5999 40.5261 39.3365 40.0572 38.8677C39.5884 38.3988 39.325 37.7629 39.325 37.0999V22.8999C39.325 22.2369 39.5884 21.601 40.0572 21.1321C40.5261 20.6633 41.1619 20.3999 41.825 20.3999C42.488 20.3999 43.1239 20.6633 43.5927 21.1321C44.0616 21.601 44.325 22.2369 44.325 22.8999V37.0999C44.325 37.7629 44.0616 38.3988 43.5927 38.8677C43.1239 39.3365 42.488 39.5999 41.825 39.5999Z" fill="#24A9E2"/>
<path d="M7.50013 23.05C7.03158 23.0509 6.5722 22.9201 6.17437 22.6726C5.77655 22.4251 5.45629 22.0707 5.25013 21.65C4.9554 21.0565 4.90834 20.3703 5.11929 19.7421C5.33024 19.114 5.78193 18.5952 6.37513 18.3L30.0001 6.47496C30.3587 6.28663 30.7576 6.18823 31.1626 6.18823C31.5676 6.18823 31.9666 6.28663 32.3251 6.47496L53.6001 18.275C54.1803 18.6065 54.605 19.1549 54.7808 19.7995C54.9566 20.4442 54.8692 21.1323 54.5376 21.7125C54.2061 22.2926 53.6577 22.7173 53.013 22.8931C52.3684 23.0689 51.6803 22.9815 51.1001 22.65L31.1001 11.475L8.60013 22.7C8.26579 22.9008 7.88908 23.0207 7.50013 23.05Z" fill="#24A9E2"/>
</svg>
