<svg width="60" height="60" viewBox="0 0 60 60" fill="none" xmlns="http://www.w3.org/2000/svg">
<path d="M23.75 53.75V46.25C23.75 43.9135 23.75 42.7453 24.2524 41.875C24.5815 41.305 25.055 40.8315 25.625 40.5025C26.4952 40 27.6635 40 30 40C32.3365 40 33.5047 40 34.375 40.5025C34.945 40.8315 35.4185 41.305 35.7475 41.875C36.25 42.7453 36.25 43.9135 36.25 46.25V53.75" stroke="#24A9E2" stroke-width="4" stroke-linecap="round"/>
<path d="M52.5 55H22.5M7.5 55H13.75" stroke="#24A9E2" stroke-width="4" stroke-linecap="round"/>
<path d="M47.5 55V37.5" stroke="#24A9E2" stroke-width="4" stroke-linecap="round"/>
<path d="M12.5 55V37.5" stroke="#24A9E2" stroke-width="4" stroke-linecap="round"/>
<path d="M29.9997 5H18.6804C15.6733 5 14.1698 5 12.9615 5.74675C11.7533 6.4935 11.0809 7.83828 9.73608 10.5279L6.22703 19.3982C5.4163 21.4476 4.70698 23.8631 6.07168 25.5938C6.98723 26.7548 8.40643 27.5 9.99978 27.5C12.7612 27.5 14.9998 25.2615 14.9998 22.5C14.9998 25.2615 17.2384 27.5 19.9998 27.5C22.7612 27.5 24.9998 25.2615 24.9998 22.5C24.9998 25.2615 27.2382 27.5 29.9997 27.5C32.7612 27.5 34.9997 25.2615 34.9997 22.5C34.9997 25.2615 37.2382 27.5 39.9997 27.5C42.7612 27.5 44.9998 25.2615 44.9998 22.5C44.9998 25.2615 47.2383 27.5 49.9998 27.5C51.5933 27.5 53.0125 26.7548 53.928 25.5938C55.2927 23.8631 54.5835 21.4476 53.7727 19.3982L50.2637 10.5279C48.919 7.83828 48.2465 6.4935 47.0382 5.74675C45.83 5 44.3265 5 41.3195 5H40" stroke="#24A9E2" stroke-width="4" stroke-linecap="round" stroke-linejoin="round"/>
</svg>
