<svg width="60" height="60" viewBox="0 0 60 60" fill="none" xmlns="http://www.w3.org/2000/svg">
<path d="M37.4344 52.2375C32.7601 53.8107 27.7073 53.8606 23.0029 52.3799C18.2985 50.8992 14.1851 47.9643 11.2545 43.9976C8.32395 40.0308 6.72729 35.2366 6.69427 30.3048C6.66126 25.373 8.19359 20.5579 11.0708 16.5522C13.948 12.5465 18.0218 9.55687 22.7059 8.01334C27.39 6.46982 32.4431 6.45202 37.138 7.96251C41.8329 9.473 45.9276 12.4339 48.8329 16.4192C51.7383 20.4045 53.3045 25.2087 53.3062 30.1406C53.2309 32.0311 53.002 33.9123 52.6219 35.7656" stroke="#24A9E2" stroke-width="3"/>
<path d="M35.4938 47.9062C33.8171 49.8112 31.979 51.5677 30 53.1563" stroke="#24A9E2" stroke-width="3"/>
<path d="M30 6.5625C36.2911 12.059 40.1838 19.7974 40.8469 28.125C40.983 29.6367 41.0112 31.1562 40.9312 32.6719" stroke="#24A9E2" stroke-width="3"/>
<path d="M30 6.5625C26.5867 9.53764 23.8445 13.2041 21.9551 17.319C20.0657 21.434 19.0723 25.9034 19.0406 30.4312C19.0406 45.6187 25.8656 50.1188 29.9719 53.1563" stroke="#24A9E2" stroke-width="3"/>
<path d="M9.72187 18.6562H50.3906" stroke="#24A9E2" stroke-width="3"/>
<path d="M30 6.55322V53.1563" stroke="#24A9E2" stroke-width="3"/>
<path d="M10.3594 42.6377H34.725" stroke="#24A9E2" stroke-width="3"/>
<path d="M6.69375 30.4312L53.3062 29.8594" stroke="#24A9E2" stroke-width="3"/>
<path d="M50.2219 53.4376L54.375 49.2751L46.875 41.7751L51.1406 39.047C51.2028 39.0102 51.2523 38.9555 51.2827 38.8899C51.313 38.8244 51.3227 38.7512 51.3105 38.6801C51.2983 38.6089 51.2648 38.5431 51.2143 38.4914C51.1639 38.4398 51.099 38.4046 51.0281 38.3907L36.6938 35.0345C36.6346 35.0224 36.5733 35.0252 36.5154 35.0426C36.4576 35.06 36.405 35.0915 36.3622 35.1342C36.3195 35.1769 36.288 35.2295 36.2706 35.2874C36.2532 35.3452 36.2504 35.4065 36.2625 35.4657L39.375 50.072C39.39 50.143 39.4257 50.2079 39.4777 50.2585C39.5297 50.3092 39.5955 50.3432 39.6669 50.3562C39.7383 50.3693 39.8119 50.3608 39.8785 50.3319C39.945 50.303 40.0015 50.2549 40.0406 50.1938L42.7219 45.9376L50.2219 53.4376Z" stroke="#24A9E2" stroke-width="3"/>
</svg>
